<?xml version="1.0" encoding="UTF-8"?><svg id="Logo" xmlns="http://www.w3.org/2000/svg" viewBox="0 0 1366 1366"><defs><style>.cls-1{fill:#fff;}.cls-2{fill:#c5151c;}.cls-3{fill:#215da9;}.cls-4{fill:#f2bf01;}</style></defs><g><path class="cls-1" d="M683,1336c-88.17,0-173.68-17.26-254.17-51.3-77.75-32.89-147.59-79.98-207.57-139.96-59.98-59.98-107.07-129.82-139.96-207.57-34.04-80.49-51.3-166-51.3-254.17s17.26-173.68,51.3-254.17c32.89-77.75,79.98-147.59,139.96-207.57s129.82-107.07,207.57-139.96c80.49-34.04,166-51.3,254.17-51.3s173.68,17.26,254.17,51.3c77.75,32.89,147.59,79.98,207.57,139.96,59.98,59.98,107.07,129.82,139.96,207.57,34.04,80.49,51.3,166,51.3,254.17s-17.26,173.68-51.3,254.17c-32.89,77.75-79.98,147.59-139.96,207.57-59.98,59.98-129.82,107.07-207.57,139.96-80.49,34.04-166,51.3-254.17,51.3Z"/><path class="cls-4" d="M683,60c84.13,0,165.71,16.46,242.48,48.93,36.9,15.61,72.5,34.93,105.8,57.43,33,22.3,64.04,47.9,92.24,76.11,28.21,28.21,53.81,59.24,76.11,92.24,22.5,33.3,41.82,68.9,57.43,105.8,32.47,76.77,48.93,158.35,48.93,242.48s-16.46,165.71-48.93,242.48c-15.61,36.9-34.93,72.5-57.43,105.8-22.3,33-47.9,64.04-76.11,92.24-28.21,28.21-59.24,53.81-92.24,76.11-33.3,22.5-68.9,41.82-105.8,57.43-76.77,32.47-158.35,48.93-242.48,48.93s-165.71-16.46-242.48-48.93c-36.9-15.61-72.5-34.93-105.8-57.43-33-22.3-64.04-47.9-92.24-76.11-28.21-28.21-53.81-59.24-76.11-92.24-22.5-33.3-41.82-68.9-57.43-105.8-32.47-76.77-48.93-158.35-48.93-242.48s16.46-165.71,48.93-242.48c15.61-36.9,34.93-72.5,57.43-105.8,22.3-33,47.9-64.04,76.11-92.24s59.24-53.81,92.24-76.11c33.3-22.5,68.9-41.82,105.8-57.43,76.77-32.47,158.35-48.93,242.48-48.93m0-60C305.79,0,0,305.79,0,683s305.79,683,683,683,683-305.79,683-683S1060.21,0,683,0h0Z"/></g><path class="cls-2" d="M1025.28,189.47c86.1,12.3,120.87,113.01,90.56,229.88-24.61,94.9-66.23,167.94-123.48,222.63-57.37,54.8-113.97,63.91-167.28,24.16-10.82-8.07-17.42-5.78-27.74,7.67-94.57,123.32-288.52,379.03-383.45,501.7-30.7,39.67-92.2,16.33-123.64-25.28-31.44-41.62-36.25-106.29-2.77-135.02,108.56-93.16,353.57-361.53,462.49-453.49,11.96-10.1,16.98-18.84,16.31-40.05-2.34-73.83,15.56-142.66,53.56-200.28,62.04-94.06,134.36-135.67,205.45-131.92Z"/><path class="cls-3" d="M508.07,681.59c65.66,101.76,344,483.22,354.95,498.8,37.8,53.8,105.81,58.75,148.51,11.16,45.08-50.25,44.01-129.49-3.28-175.78-87.8-85.93-304.13-318.96-392.18-404.55-7.68-7.46-15.16-15.2-23.54-23.62,20.81-45.14,29.2-92.27,23.65-142.04-6.95-62.23-33.21-111.87-74.28-151.36-41.16-39.58-82.5-78.91-123.98-118.05-26.4-24.91-51.65-24.35-68.81,.79-16.59,24.3-11.29,54.16,14.19,78.51,41.26,39.44,82.81,78.48,123.88,118.19,39.74,38.42,53.71,96.36,34.26,146.28-11.54-12.36-23.12-23.48-33.42-36-54.86-66.73-109.49-133.72-164-200.83-14.28-17.58-31.26-24.87-51.01-16.37-17.97,7.74-29.7,25.07-27.63,46.71,1.46,15.25,8.92,32.01,18.01,43.49,52.79,66.67,106.96,131.86,160.39,197.86,10.22,12.62,19.19,26.61,29.2,40.62-45.32,20.02-92.18,1.7-123.75-47.36-32.41-50.37-64.48-101.03-96.24-151.96-13.08-20.97-29.34-32.73-51.98-26.09-27.83,8.17-41.18,48.9-23.61,77.48,38.59,62.75,76.85,126.04,119.16,185.34,47.94,67.19,135.19,89.13,208.86,58.67,6.8-2.81,13.53-5.89,22.67-9.88Z"/></svg>